<?xml version="1.0" encoding="utf-8"?>
<!-- Generator: Adobe Illustrator 19.0.0, SVG Export Plug-In . SVG Version: 6.00 Build 0)  -->
<svg version="1.1" id="Layer_1" xmlns="http://www.w3.org/2000/svg" xmlns:xlink="http://www.w3.org/1999/xlink" x="0px" y="0px"
	 viewBox="0 0 12 12" style="enable-background:new 0 0 12 12;" xml:space="preserve">
<style type="text/css">
	.st0{fill:#0C99CB;}
</style>
<path class="st0" d="M20.9,11.7V8.8H20l-0.3,1.5h-0.1c0,0-0.1-1.7-0.3-2.2c-0.2-0.5-0.7-1.5-1.4-1.7H9.4C8.7,6.6,8.3,7.1,8,8.1
	c-0.1,0.5-0.3,2.2-0.3,2.2H7.6L7.3,8.8H6.4v2.9h1c0,0-0.1,0.5-0.1,1l-0.1,1.7v2.5h0.2v0.5H7L7.1,19h1c0,0.1,0,0.1,0,0.2
	c0,0.8,0.5,1.5,1.1,1.5c0.6,0,1.1-0.7,1.1-1.5c0-0.1,0-0.1,0-0.2h6.8c0,0.1,0,0.1,0,0.2c0,0.8,0.5,1.5,1.1,1.5
	c0.6,0,1.1-0.7,1.1-1.5c0-0.1,0-0.1,0-0.2h1.1l0.1-1.6H20v-0.5h0.2v-2.5L20,12.8c-0.1-0.5-0.1-1-0.1-1v-0.1H20.9z M9,9h9.3l0.9,4.4
	h-11L9,9z M9.5,17.3c-0.6,0-1-0.4-1-1c0-0.6,0.4-1,1-1s1,0.4,1,1C10.5,16.9,10.1,17.3,9.5,17.3z M15.2,18.1h-3v-0.5L14,15v0h-1.7
	v-0.7h2.8v0.5l-1.8,2.6v0h1.8V18.1z M17.9,15.3c0.6,0,1,0.4,1,1c0,0.6-0.4,1-1,1c-0.6,0-1-0.4-1-1C16.9,15.7,17.3,15.3,17.9,15.3z"
	/>
<rect x="3" y="3.1" class="st0" width="0.6" height="15.9"/>
<rect x="4.1" y="3.1" class="st0" width="4.5" height="2.2"/>
</svg>
